<svg xmlns="http://www.w3.org/2000/svg" viewBox="0 0 100 100"><path d="M31 16.6c3.3-.3 6.4-1.6 8.9-3.7 5.8-5 14.4-5 20.3 0 2.5 2.1 5.6 3.4 8.9 3.7 7.6.6 13.7 6.7 14.3 14.3.3 3.3 1.6 6.4 3.7 8.9 5 5.8 5 14.4 0 20.3-2.1 2.5-3.4 5.6-3.7 8.9-.6 7.6-6.7 13.7-14.3 14.3-3.3.3-6.4 1.6-8.9 3.7-5.8 5-14.4 5-20.3 0-2.5-2.1-5.6-3.4-8.9-3.7-7.6-.6-13.7-6.7-14.3-14.3-.3-3.3-1.6-6.4-3.7-8.9-5-5.8-5-14.4 0-20.3 2.1-2.5 3.4-5.6 3.7-8.9.5-7.6 6.6-13.7 14.3-14.3zm37.9 26.8c2-2 2.1-5.2.1-7.2s-5.2-2.1-7.2-.1l-.1.1L44.9 53l-6.6-6.6c-2-2-5.2-2-7.2 0s-2 5.2 0 7.2l10.2 10.2c2 2 5.2 2 7.2 0l20.4-20.4z" fill-rule="evenodd" clip-rule="evenodd" fill="#1f1e1e"/></svg>