<svg version="1.1" id="Capa_1" xmlns="http://www.w3.org/2000/svg" x="0" y="0" viewBox="0 0 100 100" xml:space="preserve"><style>.st0{fill:#1f1e1e}</style><g id="adjustments" transform="translate(-2 -3)"><path id="Trazado_2" class="st0" d="M22.9 18c0-3.2-2.6-5.8-5.8-5.8s-5.8 2.6-5.8 5.8v42.4C5.7 63.6 3.8 70.7 7 76.3c1 1.8 2.5 3.2 4.3 4.3V88c0 3.2 2.6 5.8 5.8 5.8s5.8-2.6 5.8-5.8v-7.4c5.6-3.2 7.5-10.3 4.3-15.9-1-1.8-2.5-3.2-4.3-4.3V18z"/><path id="Trazado_3" class="st0" d="M57.8 18c0-3.2-2.6-5.8-5.8-5.8-3.2 0-5.8 2.6-5.8 5.8v7.4c-5.6 3.2-7.5 10.4-4.3 15.9 1 1.8 2.5 3.2 4.3 4.3V88c0 3.2 2.6 5.8 5.8 5.8 3.2 0 5.8-2.6 5.8-5.8V45.6c5.6-3.2 7.5-10.4 4.3-15.9-1-1.8-2.5-3.2-4.3-4.3V18z"/><path id="Trazado_4" class="st0" d="M87 12.2c3.2 0 5.8 2.6 5.8 5.8v42.4c5.6 3.2 7.5 10.3 4.3 15.9-1 1.8-2.5 3.2-4.3 4.3V88c0 3.2-2.6 5.8-5.8 5.8s-5.8-2.6-5.8-5.8v-7.4c-5.6-3.2-7.5-10.3-4.3-15.9 1-1.8 2.5-3.2 4.3-4.3V18c-.1-3.2 2.5-5.8 5.8-5.8z"/></g></svg>