<svg version="1.1" id="Capa_1" xmlns="http://www.w3.org/2000/svg" x="0" y="0" viewBox="0 0 95 85.6" xml:space="preserve"><style>.st4{fill-rule:evenodd;clip-rule:evenodd;fill:#d6d6d6}</style><path d="M6.7 44.5c-.8-.1-1.7.7-2.5 1.8-.7 1.2-1.2 2.5-1.4 3.8-.3 1.5-.2 3.1.2 4.6.8 3.1 3.2 6.1 8.1 8l-.9 2.5C4.3 63 1.4 59.3.4 55.4c-.5-1.9-.6-3.9-.3-5.8.4-1.6 1-3.2 1.9-4.6 1.3-2 3.1-3.2 4.9-3l-.2 2.5zm81.6 0c.8-.1 1.7.7 2.5 1.8.7 1.2 1.2 2.5 1.4 3.8.3 1.5.2 3.1-.2 4.6-.8 3.1-3.2 6.1-8.2 8l.9 2.5c5.9-2.2 8.8-5.9 9.8-9.8.5-1.9.6-3.9.3-5.8-.3-1.7-.9-3.3-1.8-4.8-1.3-2-3.1-3.2-4.9-3l.2 2.7z" fill="#f9f9f9"/><path d="M10.6 50.9c1.8-.6 3.6-1.2 5.5-1.8 2.8-1 5.9.5 6.9 3.4 1.6 7.9 4.1 15.5 7.7 22.8 1 2.8-.5 5.9-3.4 6.9-1.8.6-3.7 1.2-5.5 1.8-3.7-11.1-7.4-22.1-11.2-33.1zm73.7 0l-5.4-1.8c-2.8-1-5.9.5-6.9 3.4-1.6 7.9-4.1 15.5-7.7 22.8-1 2.8.5 5.9 3.4 6.9 1.8.6 3.7 1.2 5.5 1.8 3.7-11.1 7.4-22.1 11.1-33.1z" fill-rule="evenodd" clip-rule="evenodd" fill="#3f3f3f"/><path d="M10.6 50.9l3-1c-4.1 2.2 1.2 2.9 2.9 3.6 1.1.5 2 .3.5 1.5-2 1.6-3.8 4.9-.3 6 .5.2 3 .8 2.3 1.5-.9.9-2.2 1.6-2.1 3.1.3 3 1.4 2.3 3.7 3 1.4.4.1 1.4-.4 1.9-.3.3-1.2.9-.6 1.5s3.5.3 3.9 1.7c.1.3-1.9 2.2-2.2 3.4-.3 1-.5 2.2.9 2.5.6.2 3.9-.1 3.4.7-.8 1.3-2.2 1.7-2.1 3l-1.7.6c-3.7-11-7.5-22-11.2-33zm73.7 0l-3-1c4.1 2.2-1.2 2.9-2.9 3.6-1.1.5-2 .3-.5 1.5 2 1.6 3.8 4.9.3 6-.5.2-3 .8-2.3 1.5.9.9 2.2 1.6 2.1 3.1-.3 3-1.4 2.3-3.7 3-1.3.4 0 1.4.4 1.9.3.3 1.2.9.6 1.5s-3.5.3-3.9 1.7c-.1.3 1.9 2.2 2.2 3.4.3 1 .5 2.2-.9 2.5-.6.2-3.9-.1-3.4.7.8 1.3 2.2 1.7 2.1 3l1.7.6c3.8-11 7.5-22 11.2-33z" fill="#303030" fill-rule="evenodd" clip-rule="evenodd"/><path d="M9.1 50c-.6.2-.9.8-.7 1.4l11.3 33.5c.2.6.8.9 1.4.7.6-.2.9-.8.7-1.4L10.6 50.6c-.2-.5-.9-.8-1.5-.6z" fill-rule="evenodd" clip-rule="evenodd" fill="#e2e2e1"/><path class="st4" d="M85.8 50c.6.2.9.8.7 1.4L75.2 84.9c-.2.6-.8.9-1.4.7-.6-.2-.9-.8-.7-1.4l11.3-33.5c.2-.6.8-.9 1.4-.7zM8.5 51.4l-1.4.5c-1.4.5-2.1 2-1.6 3.4l9.5 28c.5 1.4 2 2.2 3.4 1.7l1.3-.4L8.5 51.4z"/><path class="st4" d="M86.5 51.4l1.3.5c1.4.5 2.2 2 1.7 3.4l-9.4 28c-.5 1.4-2 2.2-3.4 1.7l-1.3-.4 11.1-33.2z"/><path d="M84.6 39.2c-1.7 1.2-2.1 3.6-.9 5.4 1.2 1.7 3.6 2.1 5.4.9 1.7-1.2 2.1-3.6.9-5.4-.3-.4-.7-.8-1.1-1.1-4.9-52-78-52-82.7 0-1.8 1.1-2.4 3.4-1.3 5.3s3.4 2.4 5.3 1.3 2.4-3.4 1.3-5.3c-.3-.4-.6-.8-1-1.1 3.7-36.9 70.2-36.9 74.1 0z" fill-rule="evenodd" clip-rule="evenodd" fill="#f9f9f9"/><path class="st4" d="M84.6 39.2c.4.1.8.1.8-.2-6.6-42.5-69-42.5-75.6 0-.1.3.3.3.8.2 3.7-36.9 70.2-36.9 74 0z"/></svg>