<svg id="Capa_1" data-name="Capa 1" xmlns="http://www.w3.org/2000/svg" viewBox="0 0 92.09 96.05"><defs><style>.cls-2,.cls-3,.cls-4{fill-rule:evenodd}.cls-2{fill:#2e2e2d}.cls-3{fill:#0b5f95}.cls-4{fill:#1273ba}</style></defs><path d="M66.73 58.18v36.21c0 5.4 9.78 5.4 9.78 0V58.18c0-5.4-9.78-5.4-9.78 0zm-33.27 0v36.21c0 5.4-9.77 5.4-9.77 0V58.18c0-5.4 9.77-5.4 9.77 0z" transform="translate(-4.05 -2.39)" fill-rule="evenodd" fill="#1f1f1f"/><path class="cls-2" d="M66.73 58.18V84c0 5.4 9.78 5.4 9.78 0V58.18c0-5.4-9.78-5.4-9.78 0zM33.46 84c0 5.4-9.77 5.4-9.77 0V58.18c0-5.4 9.77-5.4 9.77 0z" transform="translate(-4.05 -2.39)"/><path class="cls-3" d="M76.51 61v30.63c0 3.59 7.36 3.59 7.36 0V61c0-3.62-7.36-3.7-7.36 0zm-52.82 0v30.63c0 3.59-7.37 3.59-7.37 0V61c0-3.62 7.37-3.7 7.37 0z" transform="translate(-4.05 -2.39)"/><path class="cls-4" d="M76.51 61v20.89c0 3.59 7.36 3.59 7.36 0V61c0-3.62-7.36-3.7-7.36 0zM23.69 81.89c0 3.59-7.37 3.59-7.37 0V61c0-3.62 7.37-3.7 7.37 0z" transform="translate(-4.05 -2.39)"/><path d="M9 56s-3.89 12 5.59 17.81l-2.31 4.69C1 71.55 6.36 55.16 6.39 55.12zm82.23 0s3.85 12-5.63 17.82l2.31 4.69c11.32-7 5.93-23.34 5.89-23.38z" transform="translate(-4.05 -2.39)" fill="#4d4d4d"/><path class="cls-2" d="M92.78 44.25H89v4.46a5.25 5.25 0 103.78 0zm-81.59 4.46a5.23 5.23 0 11-7.14 4.9 5.31 5.31 0 013.36-4.9v-4.46h3.78z" transform="translate(-4.05 -2.39)"/><path class="cls-4" d="M6.2 45.12h6.31c9.67-42.93 65.49-42.93 75.17 0H94c-8.39-56.9-79.4-57-87.79 0z" transform="translate(-4.05 -2.39)"/><path class="cls-3" d="M11.15 45.12h1.36c9.67-42.93 65.49-42.93 75.17 0H89c-7.59-49.23-70.3-49.35-77.89 0z" transform="translate(-4.05 -2.39)"/><path class="cls-2" d="M16.32 90.92c-2.68-1.78-4.64-7.67-4.64-14.61s2-12.84 4.64-14.65zm67.55 0c2.68-1.78 4.64-7.67 4.64-14.61s-2-12.84-4.64-14.65z" transform="translate(-4.05 -2.39)"/></svg>